<svg xmlns="http://www.w3.org/2000/svg" width="371" height="61.8" viewBox="0 0 719.87 119.94">
    <defs>
        <style>
        .cls-1 {
            fill: #ffbe00;
        }

        .cls-2 {
            fill: #300;
        }

        .cls-3 {
            fill: #fff;
        }
        </style>
    </defs>
    <g id="Layer_2" data-name="Layer 2">
        <g id="Layer_1-2" data-name="Layer 1">
            <path class="cls-1" d="M79.82,112.48v5.63h1v-2.35H81l1.53,2.35h1.23l-1.69-2.48a1.49,1.49,0,0,0,1.25-1.49,1.65,1.65,0,0,0-1.88-1.66Zm1.48.82c.87,0,1,.43,1,.8,0,.53-.23.88-1.31.88h-.13V113.3Zm4,2a3.82,3.82,0,1,1-3.82-3.82,3.82,3.82,0,0,1,3.82,3.82m-3.82-4.64a4.64,4.64,0,1,0,4.63,4.64,4.65,4.65,0,0,0-4.63-4.64" />
            <path class="cls-1" d="M49.62,118.1c-3.07-1.33-28.16-12.29-36.27-18.94C4.62,92,0,81.72,0,69.43V11C13.79,3.71,30.48,0,49.62,0S85.46,3.71,99.24,11V69.43c0,12.29-4.61,22.57-13.34,29.73-8,6.54-33.37,17.68-36.28,18.94" />
            <path class="cls-2" d="M4.56,69.43c0,10.88,4,20,11.67,26.2,6.75,5.5,27.53,14.91,33.39,17.49C55.4,110.57,76.13,101.29,83,95.63c7.7-6.34,11.68-15.21,11.68-26.2V12.24C65.79,9.56,31.61,11.2,4.56,36ZM9,66V38.82H17.6V66.34c0,2.44.59,6.07,4.55,6.07a7.27,7.27,0,0,0,4.08-1V38.82h8.62V76.27c-3.3,2.24-7.73,3.46-13,3.46C13.3,79.73,9,75.1,9,66M47.91,97.27H39.28V41a20.85,20.85,0,0,1,11.63-3.07c10.31,0,16,7.82,16,20.4S61.38,79.59,51.8,79.59a13.9,13.9,0,0,1-3.89-.49Zm0-51.75A7.49,7.49,0,0,1,51,44.89c5,0,7.09,4,7.09,13.67,0,9.44-2.38,14-7.34,14A8.26,8.26,0,0,1,47.91,72Zm20.93,3.67c0-7,5.9-11.08,11.58-11.25a14.76,14.76,0,0,1,9.47,2.81v7.5a11.57,11.57,0,0,0-7.73-3.55c-2.45,0-5,1.06-5.08,4.13s2.46,4.38,5.68,6.27c7.21,4.24,8.61,8,8.45,13.09-.17,5.52-4,11.54-12.51,11.54a19,19,0,0,1-9.49-2.67v-8a13.79,13.79,0,0,0,8.26,3.51c3.16,0,5.25-1.8,5.17-4.81-.06-2.71-1.59-4.18-5.39-6.41-7.12-4.18-8.4-7.62-8.41-12.21" />
            <path class="cls-3" d="M156.44,39.52V92.68H142.86V39.52H130.34V29.45h38.53V39.52Z" />
            <path class="cls-3" d="M323.9,93.56c-12.52,0-21.8-7.53-21.8-19.62V29.45h13.57V74.2c0,6,3.94,8.94,8.67,8.94s8.5-3,8.5-9.11V29.45h12.78V73.94C345.62,85.94,336.52,93.56,323.9,93.56Z" />
            <path class="cls-3" d="M378.56,67.55H371.9V92.68H358.33V29.45h20.23c14.71,0,22.24,7.44,22.24,18.92S393.27,67.55,378.56,67.55ZM377,37.16H371.9v22.5H377c5.52,0,10.51-2.71,10.51-10.86S383.2,37.16,377,37.16Z" />
            <path class="cls-3" d="M423.93,93.56c-8.23,0-12.08-1.32-16.29-3.33V78.41c5.08,3.15,9.11,4.73,14.37,4.73,6.83,0,9.72-3.77,9.72-8.15,0-4.2-4.12-6.74-11.12-9.55-10.16-4.11-13.32-10.5-13.32-17.42,0-10.16,7.1-19.45,20.5-19.45a28.77,28.77,0,0,1,13.83,3V41.89c-4.29-2.63-7.79-3.68-11.64-3.68-5.35,0-8.94,2.36-8.94,7.44s4.29,7.18,9.72,9.46c12.44,5.26,14.72,11.47,14.72,18.48C445.48,84.89,437.77,93.56,423.93,93.56Z" />
            <path class="cls-3" d="M495.32,93.56c-8.24,0-12.09-1.32-16.29-3.33V78.41c5.08,3.15,9.11,4.73,14.36,4.73,6.83,0,9.72-3.77,9.72-8.15,0-4.2-4.11-6.74-11.12-9.55-10.16-4.11-13.31-10.5-13.31-17.42,0-10.16,7.09-19.45,20.49-19.45a28.85,28.85,0,0,1,13.84,3V41.89c-4.29-2.63-7.8-3.68-11.65-3.68-5.34,0-8.93,2.36-8.93,7.44s4.29,7.18,9.72,9.46c12.43,5.26,14.71,11.47,14.71,18.48C516.86,84.89,509.15,93.56,495.32,93.56Z" />
            <path class="cls-3" d="M546.91,39.52V92.68H533.34V39.52H520.81V29.45h38.54V39.52Z" />
            <path class="cls-3" d="M587.34,93.56c-17.69,0-24.7-14.54-24.7-32.49,0-17.78,7-32.5,24.7-32.5S612,43.29,612,61.07C612,79,605,93.56,587.34,93.56Zm0-55.7c-9.11,0-11,11.65-11,22.68s1.75,22.6,11,22.6,10.95-11.48,10.95-22.6S596.36,37.86,587.34,37.86Z" />
            <path class="cls-3" d="M653.55,92.68,639.89,65.09h-3.5V92.68H622.9V29.45h21.9c13.13,0,20.4,7.27,20.4,17.52,0,7.7-4.64,13.48-12.26,15.76l15.33,30ZM641.91,36.89h-5.52V57.21h5.52c6.3,0,10-2.1,10-10.24C651.89,39.17,648.21,36.89,641.91,36.89Z" />
            <path class="cls-3" d="M676.37,92.68V29.45h32.85V39.52H690v16h17v9.81H690V82.61h19.27V92.68Z" />
            <path class="cls-3" d="M715.62,27.6v3.81h.69V29.82h.1l1,1.59h.83l-1.15-1.67a1,1,0,0,0,.85-1,1.11,1.11,0,0,0-1.27-1.12Zm1,.56c.58,0,.66.28.66.53s-.16.6-.89.6h-.09V28.16Zm2.69,1.36a2.59,2.59,0,1,1-2.59-2.59,2.59,2.59,0,0,1,2.59,2.59m-2.59-3.14a3.14,3.14,0,1,0,3.14,3.14,3.14,3.14,0,0,0-3.14-3.14" />
            <path class="cls-3" d="M208.9,92.68V65.27h-18V92.68H177.29V29.45h13.57V55.64h18V29.45h13.58V92.68Z" />
            <path class="cls-3" d="M233.87,92.68V29.45h32.84V39.52H247.45v16h17v9.81h-17V82.61h19.26V92.68Z" />
        </g>
    </g>
</svg>
